<svg id="Group_475" data-name="Group 475" xmlns="http://www.w3.org/2000/svg" width="24.196" height="26.901" viewBox="0 0 24.196 26.901">
  <path id="Path_3120" data-name="Path 3120" d="M315.2,289.079a.333.333,0,0,0,.333-.333v-1.3a.333.333,0,0,0-.333-.333h-3.332l.912,1.968Z" transform="translate(-293.065 -274.14)" fill="#fff"/>
  <path id="Path_3121" data-name="Path 3121" d="M138.159,447.243a.678.678,0,0,0,.679.678H154.9a.678.678,0,0,0,.679-.678V446.1H138.159Z" transform="translate(-132.59 -421.02)" fill="#fff"/>
  <path id="Path_3122" data-name="Path 3122" d="M134.888,121.614l-1.027,0,2.457,6.326.807-.3a.852.852,0,0,0,.5-1.1l-1.525-4.081A1.3,1.3,0,0,0,134.888,121.614Z" transform="translate(-128.619 -121.248)" fill="#fff"/>
  <path id="Path_3123" data-name="Path 3123" d="M88.608,135.86a1.281,1.281,0,0,0-1-1.054l-2.044-.432a1.281,1.281,0,0,1-.9-.715l-.785-1.7-.08-.172-.912-1.968-.364-.785a2.207,2.207,0,0,0-1.99-1.254H74.4a1.386,1.386,0,0,1-1.293-.887L72,124.019l-2.565-6.6a1.154,1.154,0,0,0-.991-.564l-2.535.294a.848.848,0,0,0-.809,1.1L68.6,129.023a7.68,7.68,0,0,1,.359,2.32v8.03a1.665,1.665,0,0,0,1.665,1.665h0v.016H88.042v-.016h.215a1,1,0,0,0,.984-1.151Z" transform="translate(-65.057 -116.852)" fill="#fff"/>
</svg>
