<svg id="accept-icon" xmlns="http://www.w3.org/2000/svg" width="276" height="276" viewBox="0 0 276 276">
  <path id="Path_2607" data-name="Path 2607" d="M138,0A138,138,0,1,1,0,138,138,138,0,0,1,138,0Z" fill="#3aaf3c" fill-rule="evenodd"/>
  <path id="Path_2608" data-name="Path 2608" d="M253.952,143.23h10.366c-44.133,49.011-78.347,89.425-108.987,148.522-15.951-34.1-30.166-57.642-61.971-79.468l11.876-2.685c23.767,19.444,36.284,41.055,50.1,70.59,28.2-54.391,59.426-92.956,98.621-136.959Z" transform="translate(-43.033 -66.02)" fill="#0da10d"/>
  <path id="Path_2609" data-name="Path 2609" d="M128.227,182.948c10.6,6.108,17.5,11.186,25.719,20.242,21.309-34.3,44.44-53.308,74.52-80.282l2.938-1.137h32.915C220.185,170.787,185.971,211.2,155.331,270.3c-15.951-34.1-30.166-57.642-61.971-79.474Z" transform="translate(-43.033 -56.128)" fill="#fff"/>
</svg>
