<svg clip-rule="evenodd" fill-rule="evenodd" height="512" stroke-linejoin="round" stroke-miterlimit="2" viewBox="0 0 24 24" width="512" xmlns="http://www.w3.org/2000/svg"><g id="Icon"><path d="m16.5 1.75c1.794 0 3.25 1.456 3.25 3.25s-1.456 3.25-3.25 3.25-3.25-1.456-3.25-3.25 1.456-3.25 3.25-3.25zm0 1.5c-.966 0-1.75.784-1.75 1.75s.784 1.75 1.75 1.75 1.75-.784 1.75-1.75-.784-1.75-1.75-1.75z"/><path d="m16.5 15.75c1.794 0 3.25 1.456 3.25 3.25s-1.456 3.25-3.25 3.25-3.25-1.456-3.25-3.25 1.456-3.25 3.25-3.25zm0 1.5c-.966 0-1.75.784-1.75 1.75s.784 1.75 1.75 1.75 1.75-.784 1.75-1.75-.784-1.75-1.75-1.75z"/><path d="m10 8.75c1.794 0 3.25 1.456 3.25 3.25s-1.456 3.25-3.25 3.25-3.25-1.456-3.25-3.25 1.456-3.25 3.25-3.25zm0 1.5c-.966 0-1.75.784-1.75 1.75s.784 1.75 1.75 1.75 1.75-.784 1.75-1.75-.784-1.75-1.75-1.75z"/><path d="m22 4.25c.414 0 .75.336.75.75s-.336.75-.75.75h-3c-.414 0-.75-.336-.75-.75s.336-.75.75-.75z"/><path d="m22 18.25c.414 0 .75.336.75.75s-.336.75-.75.75h-3c-.414 0-.75-.336-.75-.75s.336-.75.75-.75z"/><path d="m2 12.75c-.414 0-.75-.336-.75-.75s.336-.75.75-.75h5.5c.414 0 .75.336.75.75s-.336.75-.75.75z"/><path d="m11.5 4.25c.414 0 .75.336.75.75s-.336.75-.75.75h-9.5c-.414 0-.75-.336-.75-.75s.336-.75.75-.75z"/><path d="m11.5 18.25c.414 0 .75.336.75.75s-.336.75-.75.75h-9.5c-.414 0-.75-.336-.75-.75s.336-.75.75-.75z"/><path d="m15 12.75c-.414 0-.75-.336-.75-.75s.336-.75.75-.75h7c.414 0 .75.336.75.75s-.336.75-.75.75z"/></g></svg>