<svg height="22.666" viewBox="0 0 22.666 22.666" width="22.666" xmlns="http://www.w3.org/2000/svg"><g fill="#fff" transform="translate(-17 -17)"><path d="m24.412 27.577h-4.246a3.173 3.173 0 0 1 -3.166-3.165v-4.246a3.173 3.173 0 0 1 3.166-3.166h4.246a3.173 3.173 0 0 1 3.166 3.166v4.246a3.173 3.173 0 0 1 -3.166 3.165zm-4.246-7.555a.151.151 0 0 0 -.144.144v4.246a.151.151 0 0 0 .144.144h4.246a.151.151 0 0 0 .144-.144v-4.246a.151.151 0 0 0 -.144-.144z"/><path d="m40.412 27.577h-4.246a3.173 3.173 0 0 1 -3.166-3.165v-4.246a3.173 3.173 0 0 1 3.166-3.166h4.246a3.173 3.173 0 0 1 3.166 3.166v4.246a3.173 3.173 0 0 1 -3.166 3.165zm-4.246-7.555a.151.151 0 0 0 -.144.144v4.246a.151.151 0 0 0 .144.144h4.246a.151.151 0 0 0 .144-.144v-4.246a.151.151 0 0 0 -.144-.144z" transform="translate(-3.911)"/><path d="m24.412 43.577h-4.246a3.173 3.173 0 0 1 -3.166-3.165v-4.246a3.173 3.173 0 0 1 3.166-3.166h4.246a3.173 3.173 0 0 1 3.166 3.166v4.246a3.173 3.173 0 0 1 -3.166 3.165zm-4.246-7.555a.151.151 0 0 0 -.144.144v4.246a.151.151 0 0 0 .144.144h4.246a.151.151 0 0 0 .144-.144v-4.246a.151.151 0 0 0 -.144-.144z" transform="translate(0 -3.911)"/><path d="m40.412 43.577h-4.246a3.173 3.173 0 0 1 -3.166-3.165v-4.246a3.173 3.173 0 0 1 3.166-3.166h4.246a3.173 3.173 0 0 1 3.166 3.166v4.246a3.173 3.173 0 0 1 -3.166 3.166zm-4.246-7.555a.151.151 0 0 0 -.144.144v4.246a.151.151 0 0 0 .144.144h4.246a.151.151 0 0 0 .144-.144v-4.246a.151.151 0 0 0 -.144-.144z" transform="translate(-3.911 -3.911)"/></g></svg>