<svg height="30.207" viewBox="0 0 30.586 30.207" width="30.586" xmlns="http://www.w3.org/2000/svg"><path d="m25.784 34.645c-.033-.052-1.633-3.127-3.556-6.833s-3.526-6.769-3.562-6.806a32.525 32.525 0 0 0 -2.843 2.709c-2.605 2.6-2.777 2.791-2.776 3.02 0 .134.108 1.119.238 2.188l.237 1.945-1.122 1.132-1.13 1.13-1.307-2.487-1.306-2.487-2.457-1.284c-1.352-.706-2.459-1.3-2.46-1.319s.5-.532 1.1-1.139l1.1-1.1 2.167.263 2.167.263 2.807-2.806c2.189-2.188 2.786-2.821 2.71-2.875-.053-.038-3.18-1.695-6.947-3.681l-6.844-3.615 1.415-1.415 1.414-1.414 8.456 2.241 8.456 2.241 3.866-3.859c2.71-2.7 3.96-3.906 4.179-4.016a2.167 2.167 0 0 1 .8-.189 1.721 1.721 0 0 1 1.494.587 1.618 1.618 0 0 1 .5 1.273c0 .843.045.786-4.3 5.14l-3.914 3.925 1.69 6.53c.93 3.591 1.893 7.315 2.141 8.276l.45 1.746-1.406 1.405c-1.035 1.044-1.412 1.381-1.457 1.311z" fill="#fff" transform="translate(-2 -4.447)"/></svg>