<svg height="29.103" viewBox="0 0 40 29.103" width="40" xmlns="http://www.w3.org/2000/svg"><path d="m44.069 49.076v-23.621l-12.621-3.655v27.276h-.931c0-6.138-.034-12.31-.034-18.448-2.966.034-6.172.034-9.138.069v18.413h-.793v-23.655h-12.724v23.621h-1.828v1.824h40v-1.824zm-5.552-21.9h3.621v4.034h-3.621zm0 5.138h3.621v4.034h-3.621zm0 5.517h3.621v4.034h-3.621zm0 5.586h3.621v4.034h-3.621zm-5.586-16.238h3.621v4.034h-3.621zm0 5.138h3.621v4.034h-3.621zm0 5.517h3.621v4.034h-3.621zm0 5.586h3.621v4.034h-3.621zm-17.831-16.034h3.621v3.621h-3.621zm0 5.345h3.621v3.621h-3.621zm0 5.448h3.621v3.621h-3.621zm0 5.448h3.621v3.621h-3.621zm-5.479-16.241h3.621v3.621h-3.621zm0 5.345h3.621v3.621h-3.621zm0 5.448h3.621v3.621h-3.621zm0 5.448h3.621v3.621h-3.621z" fill="#fff" transform="translate(-6 -21.8)"/></svg>