<svg height="33.652" viewBox="0 0 25.371 33.652" width="25.371" xmlns="http://www.w3.org/2000/svg"><g fill="#fff"><path d="m656.96-500.16v1.84h4.273v-3.68h-4.273z" transform="translate(-638.885 502)"/><path d="m570.085-358.628v1.729l-.44.23a5.654 5.654 0 0 0 -2.274 2.576c-.394.986-.375.447-.375 11.982v10.549h10.384v-10.667c0-10.444 0-10.681-.132-11.187a5.217 5.217 0 0 0 -2.5-3.254l-.388-.2v-3.477h-4.272v1.722zm6.441 16.715v5.094h-8.545v-10.188h8.544v5.094z" transform="translate(-552.009 365.214)"/><path d="m131.473-128.33a7.959 7.959 0 0 0 -.762 2.156 9.436 9.436 0 0 0 .092 3.543 6.512 6.512 0 0 0 4.634 4.923l.276.072v8.275h-.322a9.813 9.813 0 0 0 -2.208.335c-.874.329-.138.677 1.775.841 2.4.21 5.311-.092 5.469-.565.079-.224-1.052-.513-2.261-.592l-.677-.039v-8.255l.283-.072a5.954 5.954 0 0 0 3.05-1.919 7.835 7.835 0 0 0 .986-8.4l-.342-.69-4.877-.02-4.877-.013zm9.359.723a6.72 6.72 0 0 1 .572 1.722 8.622 8.622 0 0 1 -.125 3.135 5.61 5.61 0 0 1 -3.2 3.812c-2.7 1.058-5.626-.92-6.31-4.279a7.135 7.135 0 0 1 .486-4.272l.112-.21h4.193c3.497-.001 4.207.014 4.273.093z" transform="translate(-130.586 141.567)"/><path d="m168.87-4.182a9.8 9.8 0 0 0 .519 1.913 6.237 6.237 0 0 0 1.255 2.024 3.914 3.914 0 0 0 1.656 1.084 3.035 3.035 0 0 0 1.268.171 3.492 3.492 0 0 0 2.762-1.045 6.784 6.784 0 0 0 1.663-3.832l.053-.473h-5.146l-.007.237a1.237 1.237 0 0 1 -.519.881 1.169 1.169 0 0 1 -1.222 0 1.28 1.28 0 0 1 -.526-.887l-.013-.23h-1.743z" transform="translate(-167.555 21.429)"/></g></svg>