<svg height="32" viewBox="0 0 31.278 32" width="31.278" xmlns="http://www.w3.org/2000/svg"><g style="fill:none;stroke:#fff;stroke-linecap:round;stroke-linejoin:round;stroke-miterlimit:10;stroke-width:2"><circle cx="23.233" cy="9" r="4"/><path d="m23.233 1v1"/><path d="m23.233 16v1"/><path d="m16.1 5 .8.5"/><path d="m29.9 13-.8-.5"/><path d="m29.9 5-.8.5"/><g transform="translate(-1)"><path d="m27 31a16.021 16.021 0 0 0 -25 0z"/><path d="m11 11a8.9 8.9 0 0 0 -8.9 7.9.972.972 0 0 0 1 1.1h15.9a.972.972 0 0 0 1-1.1 9.069 9.069 0 0 0 -9-7.9z"/><path d="m15 20c-.2-5.1-1.9-9-4-9s-3.7 3.9-4 9"/></g><path d="m10.233 20v5"/></g></svg>