<svg id="Layer_2" height="512" viewBox="0 0 24 24" width="512" xmlns="http://www.w3.org/2000/svg"><g fill="rgb(0,0,0)"><path d="m21 4h-10.1843c-.4141-1.1615-1.5138-2-2.8157-2-1.3148 0-2.4224.8555-2.8266 2.035-.0584-.0106-.1119-.035-.1734-.035h-2c-.5527 0-1 .4478-1 1s.4473 1 1 1h2c.0615 0 .115-.0244.1734-.035.4042 1.1795 1.5118 2.035 2.8266 2.035 1.3019 0 2.4016-.8385 2.8157-2h10.1843c.5527 0 1-.4478 1-1s-.4473-1-1-1zm-13 2c-.5518 0-1-.4487-1-1s.4482-1 1-1 1 .4487 1 1-.4482 1-1 1z"/><path d="m21 18h-10.1843c-.4141-1.1615-1.5138-2-2.8157-2-1.3148 0-2.4224.8555-2.8266 2.035-.0584-.0106-.1119-.035-.1734-.035h-2c-.5527 0-1 .4478-1 1s.4473 1 1 1h2c.0615 0 .115-.0244.1734-.035.4042 1.1795 1.5118 2.035 2.8266 2.035 1.3019 0 2.4016-.8385 2.8157-2h10.1843c.5527 0 1-.4478 1-1s-.4473-1-1-1zm-13 2c-.5518 0-1-.4487-1-1s.4482-1 1-1 1 .4487 1 1-.4482 1-1 1z"/><path d="m21 11h-2c-.0615 0-.1149.0244-.1733.035-.4043-1.1795-1.5119-2.035-2.8267-2.035-1.3019 0-2.4016.8385-2.8157 2h-10.1843c-.5527 0-1 .4478-1 1s.4473 1 1 1h10.1843c.4141 1.1615 1.5137 2 2.8157 2 1.3148 0 2.4224-.8555 2.8267-2.035.0584.0106.1118.035.1733.035h2c.5527 0 1-.4478 1-1s-.4473-1-1-1zm-5 2c-.5518 0-1-.4487-1-1s.4482-1 1-1 1 .4487 1 1-.4482 1-1 1z"/></g></svg>